<svg xmlns="http://www.w3.org/2000/svg" xmlns:xlink="http://www.w3.org/1999/xlink" width="500" zoomAndPan="magnify" viewBox="0 0 375 374.999991" height="500" preserveAspectRatio="xMidYMid meet" version="1.0"><defs><g/><clipPath id="e10c134d27"><path d="M 85 125 L 320 125 L 320 321.75 L 85 321.75 Z M 85 125 " clip-rule="nonzero"/></clipPath><clipPath id="ddc69c66a2"><path d="M 56 7.5 L 226 7.5 L 226 214 L 56 214 Z M 56 7.5 " clip-rule="nonzero"/></clipPath><clipPath id="c196a9970b"><rect x="0" width="321" y="0" height="254"/></clipPath></defs><g clip-path="url(#e10c134d27)"><path fill="#51ade5" d="M 167.859375 259.726562 C 179.097656 258.25 189.792969 248.207031 189.996094 248.023438 C 189.972656 248.097656 190.347656 248.8125 200.457031 255.730469 C 212.59375 264.039062 223.617188 251.632812 223.617188 251.632812 C 240.144531 261.925781 251.492188 257.058594 251.492188 257.058594 C 241.441406 263.589844 227.136719 259.269531 227.136719 259.269531 C 205.238281 271.617188 190.429688 256.84375 190.429688 256.84375 C 181.234375 261.230469 167.859375 259.726562 167.859375 259.726562 Z M 85.996094 250.011719 C 92.988281 265.300781 103.027344 278.898438 115.332031 290.03125 C 150.65625 284.363281 164.304688 268.277344 164.304688 268.277344 C 164.304688 268.277344 174.539062 286.085938 198.734375 285.917969 C 222.925781 285.746094 228.265625 268.277344 228.265625 268.277344 C 228.265625 268.277344 236.886719 279.566406 259.21875 285.046875 C 273.566406 288.570312 290.390625 279.644531 295.304688 272.847656 L 295.3125 272.839844 C 286.726562 270.726562 280.699219 268.484375 280.699219 268.484375 C 263.476562 278.847656 245.367188 271.3125 245.367188 271.3125 C 263.53125 274.578125 278.632812 251.894531 278.632812 251.894531 C 278.632812 251.894531 285.191406 260.257812 299.746094 266.558594 C 312.539062 247.183594 319.988281 223.964844 319.988281 199.003906 C 319.988281 171.441406 310.910156 146.003906 295.582031 125.519531 C 293.484375 127.007812 291.054688 128.996094 287.984375 132.308594 C 262.898438 159.398438 227.054688 186.105469 199.078125 203.609375 C 160.8125 227.554688 120.667969 243.082031 85.996094 250.011719 Z M 117.957031 292.339844 C 139.355469 310.625 167.117188 321.667969 197.460938 321.667969 C 224.023438 321.667969 248.609375 313.207031 268.683594 298.828125 C 247.28125 299.34375 232.320312 287.152344 232.320312 287.152344 C 198.792969 311.226562 164.304688 286.085938 164.304688 286.085938 C 140.445312 292.753906 125.851562 293.125 117.957031 292.339844 " fill-opacity="1" fill-rule="nonzero"/></g><path fill="#3871c1" d="M 199.078125 203.609375 C 227.054688 186.105469 262.898438 159.398438 287.984375 132.308594 C 291.054688 128.996094 293.484375 127.007812 295.582031 125.519531 C 296.164062 126.304688 296.738281 127.09375 297.304688 127.890625 C 282.398438 150.875 253.542969 190.179688 212.691406 222.492188 C 176.460938 251.148438 139.148438 271.699219 107.421875 282.199219 C 98.6875 272.730469 91.421875 261.878906 85.996094 250.011719 C 120.667969 243.082031 160.8125 227.554688 199.078125 203.609375 " fill-opacity="1" fill-rule="nonzero"/><path fill="#f68712" d="M 283.460938 111.628906 C 270.40625 125.898438 246.09375 149.570312 211.941406 170.800781 C 182.835938 188.890625 152.457031 202.5 125.992188 209.75 C 120.410156 211.277344 115 212.523438 109.816406 213.46875 C 101.992188 214.898438 94.675781 215.640625 88.035156 215.640625 C 83.523438 215.640625 79.464844 215.296875 75.914062 214.628906 C 75.265625 209.511719 74.929688 204.296875 74.929688 199.003906 C 74.929688 154.429688 98.675781 115.40625 134.195312 93.929688 C 145.125 87.316406 157.179688 82.367188 169.996094 79.429688 C 170.0625 79.410156 170.128906 79.394531 170.195312 79.382812 C 173.527344 78.625 176.914062 78 180.339844 77.523438 C 180.816406 77.457031 181.296875 77.394531 181.773438 77.328125 C 185.164062 76.894531 188.597656 76.601562 192.070312 76.453125 C 192.292969 76.441406 192.515625 76.429688 192.738281 76.425781 C 194.304688 76.363281 195.878906 76.335938 197.460938 76.335938 C 203.6875 76.335938 209.804688 76.796875 215.78125 77.699219 C 241.972656 81.628906 265.449219 93.859375 283.460938 111.628906 " fill-opacity="1" fill-rule="nonzero"/><path fill="#2c3892" d="M 349.105469 60.636719 C 358.617188 46.039062 363.757812 33.074219 360.691406 30.984375 C 357.628906 28.890625 347.445312 38.410156 337.339844 52.601562 L 298.515625 52.898438 L 292.296875 62.019531 L 322.734375 75.363281 C 318.816406 81.832031 314.757812 88.761719 311.207031 95.140625 L 291.363281 94.101562 L 288.386719 98.46875 L 305.363281 106.089844 C 305.0625 106.6875 274.453125 147.441406 218.875 181.988281 C 143.699219 228.71875 68.019531 242.855469 49.8125 213.511719 C 37.195312 193.183594 55.496094 157.320312 92.929688 121.65625 C 33.039062 168.109375 0.0078125 220.222656 16.8125 247.300781 C 36.84375 279.582031 120.261719 264.277344 202.824219 212.617188 C 269.585938 170.839844 310.839844 110.15625 311.019531 109.953125 L 318.175781 119.882812 L 321.152344 115.515625 L 319.070312 100.515625 C 323.710938 94.875 328.679688 88.5625 333.265625 82.550781 L 340.046875 103.28125 L 346.265625 94.15625 L 349.105469 60.636719 " fill-opacity="1" fill-rule="nonzero"/><g clip-path="url(#ddc69c66a2)"><path fill="#24265d" d="M 195.964844 79.066406 C 199.878906 82.4375 204.632812 84.65625 209.699219 85.636719 C 215.074219 86.671875 220.089844 88.300781 225.609375 90.925781 C 225.609375 90.925781 222.261719 84.589844 215.78125 77.699219 C 206.113281 67.40625 189.457031 55.875 166.539062 62.363281 C 166.871094 62.148438 167.210938 61.9375 167.550781 61.71875 C 165.902344 61.0625 163.984375 60.527344 161.816406 60.285156 C 161.816406 60.285156 162.957031 59.941406 164.835938 59.921875 C 168.386719 59.882812 171.878906 59.011719 174.984375 57.292969 L 175.089844 57.234375 C 173.21875 56.378906 172.195312 54.949219 169.550781 54.652344 C 169.550781 54.652344 171.074219 54.195312 173.496094 54.304688 C 177.511719 54.488281 181.523438 53.742188 185.148438 51.996094 C 185.351562 51.898438 185.558594 51.800781 185.761719 51.703125 C 183.730469 50.65625 181.132812 49.703125 178.027344 49.359375 C 178.027344 49.359375 180.171875 48.648438 183.164062 48.660156 C 189.109375 48.691406 194.996094 47.464844 200.515625 45.242188 C 200.746094 45.148438 200.964844 45.0625 201.167969 44.980469 C 196.328125 43.53125 189.828125 42.070312 186.691406 41.722656 C 186.691406 41.722656 202.148438 40.109375 213.5625 41.246094 C 213.5625 41.246094 175.035156 14.636719 153.289062 63.160156 C 156.902344 51.042969 157.957031 29.953125 138.734375 16.828125 C 129.710938 10.675781 117.335938 7.554688 117.335938 7.554688 C 120.753906 10.925781 137.597656 30.851562 139.097656 33.898438 C 138.96875 33.804688 134.824219 30.734375 129.964844 28.6875 C 130.039062 28.921875 130.113281 29.152344 130.1875 29.382812 C 131.5 33.601562 139.464844 43.328125 140.378906 45.183594 C 140.378906 45.183594 137.027344 42.683594 132.792969 40.667969 C 133.785156 46.789062 136.621094 53.347656 136.875 58.878906 C 117.484375 21.105469 75.121094 32.839844 75.121094 32.839844 C 89.054688 34.328125 107.136719 40.105469 107.136719 40.105469 C 103.296875 39.742188 95.164062 39.871094 89.011719 40.398438 C 89.21875 40.53125 89.4375 40.679688 89.667969 40.832031 C 95.75 44.882812 102.523438 47.824219 109.679688 49.296875 C 113.234375 50.027344 115.59375 51.398438 115.59375 51.398438 C 111.796875 51.039062 108.453125 51.527344 105.765625 52.273438 L 106.085938 52.515625 C 110.152344 55.609375 114.925781 57.613281 119.960938 58.472656 C 122.777344 58.953125 124.417969 59.839844 124.417969 59.839844 C 121.183594 59.535156 119.601562 60.988281 117.148438 61.550781 C 117.257812 61.644531 117.363281 61.734375 117.46875 61.824219 C 118.351562 62.585938 119.28125 63.277344 120.253906 63.894531 C 69.582031 47.496094 56.390625 84.21875 56.390625 84.21875 C 67.78125 76.289062 85 68.875 85.335938 68.730469 C 82.195312 70.972656 76.132812 76.398438 71.832031 80.828125 C 71.871094 80.820312 71.914062 80.816406 71.953125 80.8125 C 79.597656 79.792969 86.964844 77.328125 93.789062 73.726562 C 96.722656 72.175781 99.121094 71.71875 99.121094 71.71875 C 96.011719 73.9375 93.804688 76.496094 92.261719 78.820312 C 92.328125 78.820312 92.398438 78.8125 92.464844 78.808594 C 97.648438 78.480469 102.648438 76.855469 107.097656 74.171875 C 109.4375 72.761719 111.195312 72.34375 111.304688 72.320312 C 108.664062 74.210938 108.421875 76.347656 106.933594 78.375 L 107.035156 78.375 C 111.328125 78.351562 115.566406 77.296875 119.316406 75.214844 C 121.347656 74.085938 122.8125 73.746094 122.902344 73.726562 C 120.734375 75.269531 119.011719 76.984375 117.636719 78.667969 C 119.660156 78.773438 121.589844 78.90625 123.417969 79.054688 C 95.476562 85.9375 95.640625 118.375 95.640625 118.375 C 97.289062 114.90625 99.417969 111.902344 101.867188 109.285156 C 103.070312 102.921875 105.625 97.941406 105.625 97.941406 C 105.0625 101.136719 106.273438 108.488281 106.292969 108.46875 C 110.3125 104.9375 112.03125 98.53125 114.105469 93.597656 C 114.640625 92.324219 115.023438 91.585938 115.023438 91.585938 C 114.472656 94.699219 114.214844 97.480469 114.152344 99.9375 C 114.179688 99.917969 114.214844 99.902344 114.242188 99.886719 C 119.535156 96.929688 123.765625 92.371094 126.195312 86.808594 C 126.601562 85.878906 126.019531 91.769531 125.992188 94.394531 C 133.167969 87.773438 137.589844 89.636719 137.589844 89.636719 C 136.527344 90.90625 135.382812 92.332031 134.195312 93.929688 C 121.234375 111.320312 102.367188 148.703125 109.816406 213.46875 C 115 212.523438 120.410156 211.277344 125.992188 209.75 C 119.917969 184.394531 112.675781 132.230469 142.273438 93.5 C 142.28125 93.785156 143.363281 91.757812 144.3125 90.726562 C 144.488281 90.871094 142.402344 99.652344 142.269531 103.3125 L 142.269531 103.398438 C 144.011719 102.195312 145.816406 102.046875 147.472656 99.867188 C 147.453125 99.957031 147.054688 101.429688 145.808594 103.367188 C 143.433594 107.054688 141.941406 111.234375 141.527344 115.601562 C 141.523438 115.652344 141.519531 115.707031 141.515625 115.757812 C 143.507812 114.519531 145.71875 112.726562 147.664062 110.164062 C 147.640625 110.285156 147.179688 112.25 145.835938 114.613281 C 142.628906 120.269531 140.371094 126.417969 139.320312 132.839844 C 139.316406 132.875 139.308594 132.90625 139.304688 132.9375 C 143.140625 129.425781 147.863281 124.453125 149.832031 121.859375 C 149.695312 122.15625 143.015625 136.476562 136.054688 145.875 C 136.054688 145.875 167.207031 132.113281 156.953125 92.773438 C 158.4375 98.683594 161.890625 103.898438 166.753906 107.5625 C 166.792969 107.59375 166.832031 107.621094 166.871094 107.652344 C 167.410156 105.480469 167.617188 99.78125 167.71875 97.082031 C 167.71875 97.082031 173.988281 104.660156 176.523438 115.476562 L 176.597656 115.542969 C 177.101562 113.453125 177.761719 107.855469 177.859375 105.289062 C 177.859375 105.289062 182.492188 114.722656 190.101562 135.140625 C 190.101562 135.140625 199.472656 100 172.507812 80.921875 C 176.082031 82.777344 180.078125 83.734375 184.132812 83.703125 L 184.25 83.703125 C 183.644531 82.304688 180.367188 78.570312 179.871094 77.867188 C 179.871094 77.867188 191.765625 83.710938 196.628906 84.054688 L 196.769531 84.0625 C 196.035156 82.398438 192.621094 77.125 192.398438 76.804688 C 192.398438 76.804688 194.75 78.015625 195.964844 79.066406 " fill-opacity="1" fill-rule="nonzero"/></g><g transform="matrix(1, 0, 0, 1, 54, 121)"><g clip-path="url(#c196a9970b)"><g fill="#000000" fill-opacity="1"><g transform="translate(7.328731, 166.150269)"><g><path d="M 1.25 0.390625 L 5.53125 -2.375 L 6.28125 -1.21875 C 6.445312 -0.945312 6.410156 -0.707031 6.171875 -0.5 C 6.054688 -0.375 5.695312 -0.0859375 5.09375 0.359375 L 4.09375 1.125 C 4.445312 2.644531 4.847656 3.753906 5.296875 4.453125 C 5.734375 5.128906 6.195312 5.664062 6.6875 6.0625 C 7.125 6.40625 7.566406 6.628906 8.015625 6.734375 C 8.972656 6.972656 9.929688 6.785156 10.890625 6.171875 C 11.796875 5.585938 12.207031 4.710938 12.125 3.546875 C 12.101562 2.972656 12.019531 2.421875 11.875 1.890625 C 11.320312 -0.109375 11.007812 -1.316406 10.9375 -1.734375 C 10.84375 -2.316406 10.851562 -2.941406 10.96875 -3.609375 C 11.15625 -4.929688 11.9375 -6.035156 13.3125 -6.921875 C 14.5625 -7.734375 15.929688 -7.976562 17.421875 -7.65625 C 19.003906 -7.300781 20.300781 -6.34375 21.3125 -4.78125 C 22.363281 -3.144531 23.070312 -1.351562 23.4375 0.59375 L 19.515625 3.140625 L 18.78125 2 C 18.59375 1.71875 18.617188 1.460938 18.859375 1.234375 C 18.867188 1.222656 18.945312 1.164062 19.09375 1.0625 C 19.238281 0.96875 19.476562 0.789062 19.8125 0.53125 C 20.144531 0.28125 20.503906 0.00390625 20.890625 -0.296875 C 20.472656 -1.566406 20.007812 -2.59375 19.5 -3.375 C 18.832031 -4.414062 18.066406 -5.046875 17.203125 -5.265625 C 16.367188 -5.484375 15.566406 -5.34375 14.796875 -4.84375 C 13.953125 -4.300781 13.578125 -3.453125 13.671875 -2.296875 C 13.679688 -1.742188 13.765625 -1.171875 13.921875 -0.578125 C 14.335938 1.097656 14.625 2.332031 14.78125 3.125 L 14.75 3.0625 C 15.09375 5.269531 14.367188 6.953125 12.578125 8.109375 C 11.015625 9.117188 9.421875 9.445312 7.796875 9.09375 C 6.109375 8.738281 4.6875 7.671875 3.53125 5.890625 C 3.050781 5.140625 2.625 4.3125 2.25 3.40625 C 1.96875 2.769531 1.703125 2.035156 1.453125 1.203125 Z M 1.25 0.390625 "/></g></g></g><g fill="#000000" fill-opacity="1"><g transform="translate(16.630688, 180.604185)"><g><path d="M 14.84375 -11.953125 L 15.75 -12.734375 L 20.34375 -7.328125 L 19.4375 -6.546875 C 19.21875 -6.359375 18.984375 -6.359375 18.734375 -6.546875 C 18.429688 -6.804688 17.953125 -7.210938 17.296875 -7.765625 L 9.5 -1.15625 C 8.132812 0 7.367188 1.265625 7.203125 2.640625 C 7.015625 4.054688 7.457031 5.398438 8.53125 6.671875 C 9.613281 7.941406 10.867188 8.597656 12.296875 8.640625 C 13.710938 8.671875 15.070312 8.128906 16.375 7.015625 L 24.21875 0.375 C 23.738281 -0.414062 23.414062 -0.953125 23.25 -1.234375 C 23.101562 -1.503906 23.140625 -1.734375 23.359375 -1.921875 L 24.265625 -2.703125 L 25.765625 -0.953125 L 27.53125 1.140625 L 28.84375 2.6875 L 27.921875 3.46875 C 27.691406 3.664062 27.457031 3.664062 27.21875 3.46875 L 25.953125 2.4375 L 18.125 9.09375 C 16.351562 10.59375 14.398438 11.300781 12.265625 11.21875 C 10.128906 11.113281 8.257812 10.113281 6.65625 8.21875 C 5.0625 6.34375 4.390625 4.34375 4.640625 2.21875 C 4.890625 0.101562 5.898438 -1.703125 7.671875 -3.203125 L 15.5 -9.859375 C 15.050781 -10.648438 14.789062 -11.128906 14.71875 -11.296875 C 14.570312 -11.546875 14.613281 -11.765625 14.84375 -11.953125 Z M 14.84375 -11.953125 "/></g></g></g><g fill="#000000" fill-opacity="1"><g transform="translate(32.481673, 198.811879)"><g><path d="M 0.71875 0.59375 L 1.53125 -0.3125 C 1.707031 -0.519531 1.921875 -0.550781 2.171875 -0.40625 L 3.640625 0.40625 L 14.296875 -11.6875 C 13.722656 -12.4375 13.382812 -12.878906 13.28125 -13.015625 C 13.113281 -13.253906 13.117188 -13.472656 13.296875 -13.671875 L 14.125 -14.609375 L 15.65625 -13.265625 L 19.734375 -9.671875 C 20.679688 -8.835938 21.4375 -8.003906 22 -7.171875 C 22.539062 -6.367188 22.875 -5.578125 23 -4.796875 C 23.125 -3.984375 23.070312 -3.234375 22.84375 -2.546875 C 22.582031 -1.828125 22.164062 -1.144531 21.59375 -0.5 C 21.15625 0 20.640625 0.414062 20.046875 0.75 C 19.472656 1.0625 18.851562 1.269531 18.1875 1.375 C 17.519531 1.476562 16.84375 1.453125 16.15625 1.296875 C 15.351562 1.128906 14.648438 0.875 14.046875 0.53125 C 14.179688 0.914062 14.222656 1.328125 14.171875 1.765625 L 13.484375 9.15625 C 14.097656 9.925781 14.429688 10.351562 14.484375 10.4375 L 14.46875 10.40625 C 14.644531 10.644531 14.644531 10.867188 14.46875 11.078125 L 13.640625 12.015625 L 13.25 11.671875 L 12.09375 10.65625 L 11.421875 10.0625 C 11.054688 9.738281 10.921875 9.351562 11.015625 8.90625 L 11.84375 0 C 11.863281 -0.25 11.84375 -0.484375 11.78125 -0.703125 C 11.726562 -0.890625 11.554688 -1.113281 11.265625 -1.375 L 9.90625 -2.578125 L 5.6875 2.203125 C 6.238281 2.941406 6.550781 3.378906 6.625 3.515625 C 6.707031 3.609375 6.75 3.722656 6.75 3.859375 C 6.75 3.992188 6.710938 4.101562 6.640625 4.1875 L 5.828125 5.09375 L 4.3125 3.75 L 2.25 1.9375 Z M 11.1875 -4.09375 L 13.140625 -2.375 L 13.125 -2.390625 C 13.738281 -1.847656 14.332031 -1.445312 14.90625 -1.1875 C 15.4375 -0.957031 16.003906 -0.84375 16.609375 -0.84375 C 17.171875 -0.832031 17.675781 -0.9375 18.125 -1.15625 C 18.59375 -1.363281 19.035156 -1.703125 19.453125 -2.171875 C 20.234375 -3.054688 20.535156 -4 20.359375 -5 C 20.171875 -5.96875 19.476562 -6.976562 18.28125 -8.03125 L 16.234375 -9.828125 Z M 11.1875 -4.09375 "/></g></g></g><g fill="#000000" fill-opacity="1"><g transform="translate(49.009295, 213.204383)"><g><path d="M 4.359375 -4.21875 C 4.648438 -5.550781 5.207031 -6.847656 6.03125 -8.109375 C 6.851562 -9.378906 7.816406 -10.421875 8.921875 -11.234375 C 10.015625 -12.023438 11.179688 -12.566406 12.421875 -12.859375 C 13.660156 -13.160156 14.9375 -13.191406 16.25 -12.953125 C 17.582031 -12.703125 18.859375 -12.175781 20.078125 -11.375 C 21.304688 -10.570312 22.3125 -9.613281 23.09375 -8.5 C 23.863281 -7.375 24.363281 -6.210938 24.59375 -5.015625 C 24.820312 -3.753906 24.796875 -2.460938 24.515625 -1.140625 C 24.222656 0.148438 23.648438 1.453125 22.796875 2.765625 L 22.765625 2.78125 C 21.921875 4.070312 20.960938 5.109375 19.890625 5.890625 C 18.796875 6.691406 17.628906 7.238281 16.390625 7.53125 C 15.171875 7.8125 13.914062 7.832031 12.625 7.59375 C 11.25 7.34375 9.957031 6.820312 8.75 6.03125 C 7.550781 5.25 6.5625 4.285156 5.78125 3.140625 C 5.007812 2.023438 4.515625 0.863281 4.296875 -0.34375 C 4.046875 -1.59375 4.066406 -2.882812 4.359375 -4.21875 Z M 8.359375 -6.59375 C 7.671875 -5.539062 7.203125 -4.515625 6.953125 -3.515625 C 6.703125 -2.523438 6.65625 -1.554688 6.8125 -0.609375 C 6.96875 0.304688 7.316406 1.15625 7.859375 1.9375 C 8.421875 2.757812 9.144531 3.457031 10.03125 4.03125 C 10.925781 4.613281 11.859375 4.992188 12.828125 5.171875 C 13.765625 5.347656 14.6875 5.320312 15.59375 5.09375 C 16.476562 4.863281 17.332031 4.425781 18.15625 3.78125 C 18.976562 3.144531 19.734375 2.300781 20.421875 1.25 L 20.390625 1.234375 C 21.078125 0.179688 21.539062 -0.847656 21.78125 -1.859375 C 22.050781 -2.941406 22.117188 -3.898438 21.984375 -4.734375 C 21.835938 -5.648438 21.484375 -6.5 20.921875 -7.28125 C 20.390625 -8.0625 19.648438 -8.757812 18.703125 -9.375 C 17.796875 -9.96875 16.878906 -10.347656 15.953125 -10.515625 C 15.023438 -10.703125 14.109375 -10.675781 13.203125 -10.4375 C 12.296875 -10.207031 11.429688 -9.769531 10.609375 -9.125 C 9.796875 -8.488281 9.046875 -7.644531 8.359375 -6.59375 Z M 8.359375 -6.59375 "/></g></g></g><g fill="#000000" fill-opacity="1"><g transform="translate(69.550389, 226.237889)"><g><path d="M 8.421875 -17.09375 L 8.921875 -18.1875 L 15.09375 -15.375 L 14.59375 -14.28125 C 14.46875 -14 14.269531 -13.890625 14 -13.953125 C 13 -14.191406 12.460938 -14.328125 12.390625 -14.359375 L 13.15625 -6.90625 C 13.21875 -6.019531 13.226562 -5.363281 13.1875 -4.9375 C 13.632812 -5.414062 14.128906 -5.847656 14.671875 -6.234375 L 20.796875 -10.53125 C 20.722656 -10.570312 20.269531 -10.894531 19.4375 -11.5 C 19.21875 -11.65625 19.171875 -11.875 19.296875 -12.15625 L 19.78125 -13.234375 L 25.953125 -10.40625 L 25.453125 -9.28125 C 25.328125 -9.019531 25.148438 -8.910156 24.921875 -8.953125 C 24.859375 -8.960938 24.757812 -8.984375 24.625 -9.015625 C 24.5 -9.046875 24.316406 -9.082031 24.078125 -9.125 C 23.835938 -9.175781 23.628906 -9.222656 23.453125 -9.265625 L 13.609375 -2.625 L 11.109375 2.84375 C 11.484375 3.15625 11.925781 3.476562 12.4375 3.8125 C 12.675781 3.976562 12.738281 4.191406 12.625 4.453125 L 12.109375 5.5625 L 10.25 4.71875 L 7.75 3.578125 L 5.890625 2.734375 L 6.40625 1.625 C 6.519531 1.363281 6.734375 1.269531 7.046875 1.34375 L 8.609375 1.703125 L 11.109375 -3.765625 L 9.703125 -15.546875 C 9.117188 -16.015625 8.738281 -16.304688 8.5625 -16.421875 C 8.34375 -16.585938 8.296875 -16.8125 8.421875 -17.09375 Z M 8.421875 -17.09375 "/></g></g></g><g fill="#000000" fill-opacity="1"><g transform="translate(90.21174, 235.202028)"><g><path d="M 3.625 -6.625 L 4.296875 -8.65625 L 10.890625 -6.46875 L 10.21875 -4.4375 Z M 3.625 -6.625 "/></g></g></g><g fill="#000000" fill-opacity="1"><g transform="translate(101.827858, 239.025412)"><g><path d="M 1.15625 -0.609375 L 2.296875 -5.5625 L 3.640625 -5.25 C 3.953125 -5.175781 4.101562 -4.976562 4.09375 -4.65625 C 4.09375 -4.488281 4.035156 -4.03125 3.921875 -3.28125 L 3.71875 -2.046875 C 5.03125 -1.203125 6.09375 -0.6875 6.90625 -0.5 C 7.6875 -0.3125 8.394531 -0.242188 9.03125 -0.296875 C 9.570312 -0.347656 10.046875 -0.5 10.453125 -0.75 C 11.304688 -1.226562 11.859375 -2.023438 12.109375 -3.140625 C 12.359375 -4.191406 12.046875 -5.109375 11.171875 -5.890625 C 10.753906 -6.296875 10.316406 -6.628906 9.859375 -6.890625 C 8.054688 -7.953125 6.988281 -8.601562 6.65625 -8.84375 C 6.175781 -9.195312 5.742188 -9.65625 5.359375 -10.21875 C 4.578125 -11.3125 4.367188 -12.648438 4.734375 -14.234375 C 5.066406 -15.691406 5.882812 -16.820312 7.1875 -17.625 C 8.5625 -18.457031 10.160156 -18.664062 11.984375 -18.25 C 13.867188 -17.8125 15.625 -17.019531 17.25 -15.875 L 16.1875 -11.328125 L 14.875 -11.640625 C 14.539062 -11.710938 14.378906 -11.914062 14.390625 -12.25 C 14.398438 -12.257812 14.421875 -12.347656 14.453125 -12.515625 C 14.484375 -12.691406 14.53125 -12.984375 14.59375 -13.390625 C 14.65625 -13.804688 14.722656 -14.253906 14.796875 -14.734375 C 13.609375 -15.367188 12.554688 -15.789062 11.640625 -16 C 10.441406 -16.28125 9.457031 -16.203125 8.6875 -15.765625 C 7.9375 -15.335938 7.457031 -14.675781 7.25 -13.78125 C 7.019531 -12.800781 7.335938 -11.925781 8.203125 -11.15625 C 8.609375 -10.769531 9.070312 -10.414062 9.59375 -10.09375 C 11.0625 -9.195312 12.125 -8.515625 12.78125 -8.046875 L 12.71875 -8.0625 C 14.507812 -6.726562 15.164062 -5.019531 14.6875 -2.9375 C 14.269531 -1.125 13.351562 0.222656 11.9375 1.109375 C 10.476562 2.023438 8.710938 2.242188 6.640625 1.765625 C 5.773438 1.566406 4.882812 1.273438 3.96875 0.890625 C 3.332031 0.617188 2.640625 0.273438 1.890625 -0.140625 Z M 1.15625 -0.609375 "/></g></g></g><g fill="#000000" fill-opacity="1"><g transform="translate(118.566843, 242.928449)"><g><path d="M 2.328125 -18.921875 L 2.453125 -20.109375 L 9.515625 -19.421875 L 9.390625 -18.234375 C 9.367188 -17.941406 9.203125 -17.78125 8.890625 -17.75 C 8.492188 -17.707031 7.863281 -17.660156 7 -17.609375 L 6.015625 -7.4375 C 5.835938 -5.65625 6.164062 -4.21875 7 -3.125 C 7.863281 -1.96875 9.125 -1.304688 10.78125 -1.140625 C 12.4375 -0.984375 13.789062 -1.390625 14.84375 -2.359375 C 15.875 -3.304688 16.472656 -4.640625 16.640625 -6.359375 L 17.640625 -16.578125 C 16.753906 -16.804688 16.148438 -16.96875 15.828125 -17.0625 C 15.535156 -17.15625 15.398438 -17.347656 15.421875 -17.640625 L 15.546875 -18.828125 L 17.84375 -18.609375 L 20.5625 -18.34375 L 22.59375 -18.140625 L 22.46875 -16.9375 C 22.4375 -16.632812 22.265625 -16.46875 21.953125 -16.4375 L 20.328125 -16.296875 L 19.328125 -6.078125 C 19.109375 -3.773438 18.207031 -1.910156 16.625 -0.484375 C 15.007812 0.929688 12.96875 1.519531 10.5 1.28125 C 8.050781 1.039062 6.179688 0.0703125 4.890625 -1.625 C 3.585938 -3.320312 3.046875 -5.328125 3.265625 -7.640625 L 4.265625 -17.859375 C 3.398438 -18.117188 2.878906 -18.28125 2.703125 -18.34375 C 2.429688 -18.425781 2.304688 -18.617188 2.328125 -18.921875 Z M 2.328125 -18.921875 "/></g></g></g><g fill="#000000" fill-opacity="1"><g transform="translate(142.626399, 244.971659)"><g><path d="M 0.9375 -0.078125 L 0.875 -1.296875 C 0.863281 -1.566406 1 -1.738281 1.28125 -1.8125 L 2.90625 -2.234375 L 2.125 -18.34375 C 1.195312 -18.488281 0.644531 -18.578125 0.46875 -18.609375 C 0.1875 -18.660156 0.0390625 -18.820312 0.03125 -19.09375 L -0.03125 -20.34375 L 2 -20.4375 L 7.4375 -20.703125 C 8.695312 -20.753906 9.816406 -20.675781 10.796875 -20.46875 C 11.742188 -20.257812 12.539062 -19.921875 13.1875 -19.453125 C 13.832031 -18.960938 14.3125 -18.390625 14.625 -17.734375 C 14.9375 -17.035156 15.113281 -16.253906 15.15625 -15.390625 C 15.1875 -14.722656 15.101562 -14.0625 14.90625 -13.40625 C 14.71875 -12.78125 14.421875 -12.195312 14.015625 -11.65625 C 13.609375 -11.113281 13.101562 -10.664062 12.5 -10.3125 C 11.800781 -9.875 11.117188 -9.566406 10.453125 -9.390625 C 10.816406 -9.203125 11.128906 -8.9375 11.390625 -8.59375 L 16.0625 -2.796875 C 17.039062 -2.691406 17.578125 -2.625 17.671875 -2.59375 L 17.640625 -2.59375 C 17.929688 -2.539062 18.082031 -2.378906 18.09375 -2.109375 L 18.15625 -0.859375 L 17.640625 -0.84375 L 16.109375 -0.765625 L 15.203125 -0.71875 C 14.710938 -0.695312 14.347656 -0.878906 14.109375 -1.265625 L 8.5 -8.234375 C 8.332031 -8.421875 8.15625 -8.578125 7.96875 -8.703125 C 7.789062 -8.804688 7.503906 -8.847656 7.109375 -8.828125 L 5.3125 -8.734375 L 5.625 -2.359375 C 6.519531 -2.222656 7.046875 -2.132812 7.203125 -2.09375 C 7.328125 -2.082031 7.4375 -2.03125 7.53125 -1.9375 C 7.625 -1.84375 7.671875 -1.738281 7.671875 -1.625 L 7.734375 -0.40625 L 5.71875 -0.296875 L 2.96875 -0.171875 Z M 5.1875 -10.71875 L 7.78125 -10.84375 L 7.75 -10.84375 C 8.570312 -10.882812 9.273438 -11.015625 9.859375 -11.234375 C 10.398438 -11.429688 10.894531 -11.738281 11.34375 -12.15625 C 11.75 -12.539062 12.039062 -12.96875 12.21875 -13.4375 C 12.40625 -13.914062 12.484375 -14.472656 12.453125 -15.109375 C 12.390625 -16.285156 11.953125 -17.171875 11.140625 -17.765625 C 10.335938 -18.328125 9.140625 -18.570312 7.546875 -18.5 L 4.828125 -18.359375 Z M 5.1875 -10.71875 "/></g></g></g><g fill="#000000" fill-opacity="1"><g transform="translate(164.507014, 243.800234)"><g><path d="M 0.1875 -6.0625 C -0.53125 -7.226562 -1.035156 -8.550781 -1.328125 -10.03125 C -1.617188 -11.507812 -1.644531 -12.925781 -1.40625 -14.28125 C -1.175781 -15.625 -0.71875 -16.828125 -0.03125 -17.890625 C 0.644531 -18.960938 1.539062 -19.875 2.65625 -20.625 C 3.78125 -21.363281 5.0625 -21.875 6.5 -22.15625 C 7.9375 -22.4375 9.320312 -22.445312 10.65625 -22.1875 C 11.988281 -21.90625 13.160156 -21.414062 14.171875 -20.71875 C 15.210938 -19.976562 16.085938 -19.03125 16.796875 -17.875 C 17.492188 -16.75 17.992188 -15.421875 18.296875 -13.890625 L 18.265625 -13.84375 C 18.566406 -12.332031 18.601562 -10.921875 18.375 -9.609375 C 18.15625 -8.265625 17.703125 -7.0625 17.015625 -6 C 16.328125 -4.9375 15.4375 -4.046875 14.34375 -3.328125 C 13.1875 -2.554688 11.898438 -2.03125 10.484375 -1.75 C 9.078125 -1.476562 7.695312 -1.484375 6.34375 -1.765625 C 5 -2.015625 3.832031 -2.503906 2.84375 -3.234375 C 1.800781 -3.960938 0.914062 -4.90625 0.1875 -6.0625 Z M 1.40625 -10.546875 C 1.644531 -9.316406 2.019531 -8.253906 2.53125 -7.359375 C 3.050781 -6.484375 3.695312 -5.757812 4.46875 -5.1875 C 5.21875 -4.632812 6.054688 -4.269531 6.984375 -4.09375 C 7.953125 -3.894531 8.957031 -3.894531 10 -4.09375 C 11.039062 -4.300781 11.976562 -4.679688 12.8125 -5.234375 C 13.601562 -5.742188 14.242188 -6.398438 14.734375 -7.203125 C 15.222656 -7.984375 15.535156 -8.890625 15.671875 -9.921875 C 15.816406 -10.953125 15.769531 -12.082031 15.53125 -13.3125 L 15.5 -13.296875 C 15.257812 -14.535156 14.875 -15.601562 14.34375 -16.5 C 13.789062 -17.457031 13.171875 -18.191406 12.484375 -18.703125 C 11.734375 -19.253906 10.894531 -19.617188 9.96875 -19.796875 C 9.03125 -19.984375 8.007812 -19.96875 6.90625 -19.75 C 5.84375 -19.539062 4.921875 -19.175781 4.140625 -18.65625 C 3.328125 -18.144531 2.6875 -17.488281 2.21875 -16.6875 C 1.726562 -15.882812 1.410156 -14.96875 1.265625 -13.9375 C 1.117188 -12.914062 1.164062 -11.785156 1.40625 -10.546875 Z M 1.40625 -10.546875 "/></g></g></g><g fill="#000000" fill-opacity="1"><g transform="translate(188.328275, 238.858257)"><g><path d="M -5.84375 -18.140625 L -6.25 -19.265625 L 0.140625 -21.53125 L 0.546875 -20.40625 C 0.648438 -20.101562 0.578125 -19.890625 0.328125 -19.765625 C -0.546875 -19.234375 -1.019531 -18.957031 -1.09375 -18.9375 L 4.640625 -14.125 C 5.296875 -13.53125 5.753906 -13.0625 6.015625 -12.71875 C 6.003906 -13.382812 6.0625 -14.039062 6.1875 -14.6875 L 7.609375 -22.046875 C 7.535156 -22.015625 6.984375 -21.929688 5.953125 -21.796875 C 5.679688 -21.742188 5.492188 -21.863281 5.390625 -22.15625 L 5 -23.265625 L 11.40625 -25.546875 L 11.8125 -24.390625 C 11.914062 -24.109375 11.863281 -23.90625 11.65625 -23.78125 C 11.601562 -23.738281 11.519531 -23.679688 11.40625 -23.609375 C 11.300781 -23.546875 11.144531 -23.445312 10.9375 -23.3125 C 10.738281 -23.1875 10.554688 -23.078125 10.390625 -22.984375 L 7.9375 -11.359375 L 9.9375 -5.6875 C 10.425781 -5.726562 10.972656 -5.8125 11.578125 -5.9375 C 11.878906 -5.96875 12.078125 -5.851562 12.171875 -5.59375 L 12.578125 -4.4375 L 10.640625 -3.75 L 8.046875 -2.828125 L 6.140625 -2.140625 L 5.734375 -3.296875 C 5.640625 -3.554688 5.722656 -3.769531 5.984375 -3.9375 L 7.34375 -4.765625 L 5.34375 -10.4375 L -3.84375 -17.921875 C -4.601562 -17.847656 -5.085938 -17.796875 -5.296875 -17.765625 C -5.554688 -17.710938 -5.738281 -17.835938 -5.84375 -18.140625 Z M -5.84375 -18.140625 "/></g></g></g><g fill="#000000" fill-opacity="1"><g transform="translate(209.308388, 230.90959)"><g/></g></g><g fill="#000000" fill-opacity="1"><g transform="translate(217.100295, 227.316171)"><g><path d="M 0.453125 -1.234375 L -2.078125 -5.65625 L -0.890625 -6.328125 C -0.609375 -6.492188 -0.363281 -6.445312 -0.15625 -6.1875 C -0.0390625 -6.070312 0.222656 -5.703125 0.640625 -5.078125 L 1.328125 -4.015625 C 2.878906 -4.296875 4.015625 -4.640625 4.734375 -5.046875 C 5.429688 -5.453125 5.988281 -5.882812 6.40625 -6.34375 C 6.789062 -6.75 7.039062 -7.179688 7.15625 -7.640625 C 7.445312 -8.578125 7.3125 -9.535156 6.75 -10.515625 C 6.21875 -11.453125 5.363281 -11.921875 4.1875 -11.921875 C 3.613281 -11.929688 3.066406 -11.878906 2.546875 -11.765625 C 0.503906 -11.316406 -0.722656 -11.066406 -1.140625 -11.015625 C -1.722656 -10.953125 -2.34375 -10.992188 -3 -11.140625 C -4.320312 -11.410156 -5.390625 -12.253906 -6.203125 -13.671875 C -6.941406 -14.960938 -7.109375 -16.34375 -6.703125 -17.8125 C -6.253906 -19.363281 -5.222656 -20.601562 -3.609375 -21.53125 C -1.921875 -22.5 -0.09375 -23.113281 1.875 -23.375 L 4.1875 -19.3125 L 3.015625 -18.640625 C 2.722656 -18.472656 2.472656 -18.515625 2.265625 -18.765625 C 2.253906 -18.773438 2.203125 -18.851562 2.109375 -19 C 2.015625 -19.144531 1.847656 -19.390625 1.609375 -19.734375 C 1.378906 -20.085938 1.125 -20.460938 0.84375 -20.859375 C -0.445312 -20.523438 -1.5 -20.125 -2.3125 -19.65625 C -3.382812 -19.050781 -4.054688 -18.320312 -4.328125 -17.46875 C -4.585938 -16.644531 -4.492188 -15.835938 -4.046875 -15.046875 C -3.535156 -14.171875 -2.703125 -13.742188 -1.546875 -13.765625 C -0.984375 -13.742188 -0.40625 -13.800781 0.1875 -13.9375 C 1.882812 -14.269531 3.125 -14.484375 3.90625 -14.578125 L 3.859375 -14.546875 C 6.085938 -14.773438 7.726562 -13.960938 8.78125 -12.109375 C 9.707031 -10.503906 9.953125 -8.894531 9.515625 -7.28125 C 9.054688 -5.625 7.90625 -4.269531 6.0625 -3.21875 C 5.289062 -2.78125 4.445312 -2.394531 3.53125 -2.0625 C 2.875 -1.8125 2.128906 -1.585938 1.296875 -1.390625 Z M 0.453125 -1.234375 "/></g></g></g><g fill="#000000" fill-opacity="1"><g transform="translate(232.064848, 218.824457)"><g><path d="M 0.5625 -0.421875 L -0.125 -1.328125 C -0.269531 -1.515625 -0.265625 -1.710938 -0.109375 -1.921875 L 0.578125 -2.859375 L -4.671875 -21.90625 L -2.46875 -23.59375 L 14.453125 -13.453125 L 15.5625 -13.875 C 15.8125 -13.976562 16.007812 -13.9375 16.15625 -13.75 L 16.84375 -12.84375 L 12.203125 -9.296875 L 11.515625 -10.203125 C 11.367188 -10.390625 11.378906 -10.59375 11.546875 -10.8125 L 12.265625 -11.765625 L 8.53125 -14.046875 L 1.578125 -8.75 L 2.78125 -4.546875 L 3.921875 -4.984375 C 4.148438 -5.078125 4.335938 -5.03125 4.484375 -4.84375 L 5.171875 -3.9375 Z M 0.984375 -10.78125 L 6.71875 -15.15625 L -0.390625 -19.5625 C -0.890625 -19.84375 -1.4375 -20.21875 -2.03125 -20.6875 C -1.695312 -19.851562 -1.460938 -19.226562 -1.328125 -18.8125 Z M 0.984375 -10.78125 "/></g></g></g><g fill="#000000" fill-opacity="1"><g transform="translate(251.730394, 203.535268)"><g><path d="M 0.6875 -0.6875 L -0.1875 -1.515625 C -0.382812 -1.710938 -0.414062 -1.929688 -0.28125 -2.171875 L 0.609375 -3.578125 L -11.0625 -14.71875 C -11.820312 -14.164062 -12.273438 -13.851562 -12.421875 -13.78125 C -12.648438 -13.613281 -12.878906 -13.640625 -13.109375 -13.859375 L -13.96875 -14.6875 L -11.59375 -17.171875 C -11.425781 -17.347656 -11.285156 -17.460938 -11.171875 -17.515625 C -11.085938 -17.546875 -10.898438 -17.566406 -10.609375 -17.578125 L 8.53125 -15.484375 L 8.5625 -15.453125 C 8.34375 -15.597656 7.988281 -15.90625 7.5 -16.375 L -1.375 -24.859375 C -1.632812 -24.660156 -1.878906 -24.476562 -2.109375 -24.3125 C -2.335938 -24.144531 -2.519531 -24.015625 -2.65625 -23.921875 C -2.800781 -23.828125 -2.878906 -23.769531 -2.890625 -23.75 C -3.148438 -23.570312 -3.378906 -23.578125 -3.578125 -23.765625 L -4.46875 -24.625 L -2.875 -26.296875 L -1.21875 -28.046875 L 0.203125 -29.53125 L 1.09375 -28.671875 C 1.300781 -28.472656 1.328125 -28.253906 1.171875 -28.015625 L 0.28125 -26.609375 L 13.4375 -14.046875 L 12.484375 -13.046875 C 12.222656 -12.765625 11.890625 -12.640625 11.484375 -12.671875 L -7.6875 -14.71875 C -7.425781 -14.53125 -7.097656 -14.242188 -6.703125 -13.859375 L 2.265625 -5.3125 C 2.722656 -5.664062 3.238281 -6.046875 3.8125 -6.453125 C 4.039062 -6.609375 4.253906 -6.585938 4.453125 -6.390625 L 5.328125 -5.5625 Z M 0.6875 -0.6875 "/></g></g></g><g fill="#000000" fill-opacity="1"><g transform="translate(268.31897, 185.354542)"><g/></g></g><g fill="#000000" fill-opacity="1"><g transform="translate(273.687, 178.590164)"><g><path d="M 0.515625 -0.8125 L -0.484375 -1.453125 C -0.734375 -1.617188 -0.8125 -1.832031 -0.71875 -2.09375 L -0.078125 -3.625 L -13.703125 -12.359375 C -14.335938 -11.671875 -14.722656 -11.269531 -14.859375 -11.15625 C -15.054688 -10.957031 -15.28125 -10.9375 -15.53125 -11.09375 L -16.53125 -11.734375 L -15.421875 -13.453125 L -8.421875 -24.375 L -4.3125 -21.734375 L -5.046875 -20.578125 C -5.222656 -20.304688 -5.460938 -20.234375 -5.765625 -20.359375 C -5.773438 -20.367188 -5.859375 -20.410156 -6.015625 -20.484375 C -6.171875 -20.566406 -6.40625 -20.6875 -6.71875 -20.84375 C -7.039062 -21 -7.378906 -21.164062 -7.734375 -21.34375 L -12.0625 -14.59375 L -6.0625 -10.75 L -1.921875 -17.234375 L -0.078125 -16.046875 L -4.21875 -9.5625 L 1.421875 -5.953125 C 1.460938 -6.003906 1.523438 -6.078125 1.609375 -6.171875 C 1.703125 -6.273438 1.832031 -6.414062 2 -6.59375 C 2.175781 -6.78125 2.347656 -6.957031 2.515625 -7.125 C 2.734375 -7.34375 2.96875 -7.375 3.21875 -7.21875 L 4.21875 -6.578125 Z M 0.515625 -0.8125 "/></g></g></g><g fill="#000000" fill-opacity="1"><g transform="translate(284.06268, 162.213749)"><g><path d="M 0.375 -0.859375 L -0.71875 -1.375 C -0.96875 -1.488281 -1.0625 -1.691406 -1 -1.984375 L -0.609375 -3.609375 L -15.203125 -10.484375 C -15.765625 -9.722656 -16.101562 -9.28125 -16.21875 -9.15625 C -16.382812 -8.914062 -16.59375 -8.851562 -16.84375 -8.96875 L -17.96875 -9.5 L -17.109375 -11.34375 L -14.78125 -16.28125 C -14.25 -17.414062 -13.65625 -18.367188 -13 -19.140625 C -12.382812 -19.878906 -11.710938 -20.421875 -10.984375 -20.765625 C -10.253906 -21.109375 -9.523438 -21.265625 -8.796875 -21.234375 C -8.046875 -21.179688 -7.273438 -20.972656 -6.484375 -20.609375 C -5.890625 -20.328125 -5.34375 -19.941406 -4.84375 -19.453125 C -4.382812 -18.992188 -4.015625 -18.457031 -3.734375 -17.84375 C -3.453125 -17.226562 -3.289062 -16.578125 -3.25 -15.890625 C -3.1875 -15.066406 -3.238281 -14.316406 -3.40625 -13.640625 C -3.0625 -13.867188 -2.675781 -14.023438 -2.25 -14.109375 L 5.046875 -15.484375 C 5.609375 -16.296875 5.925781 -16.738281 6 -16.8125 L 5.984375 -16.796875 C 6.160156 -17.023438 6.375 -17.082031 6.625 -16.96875 L 7.75 -16.4375 L 7.53125 -15.96875 L 6.875 -14.578125 L 6.484375 -13.765625 C 6.273438 -13.328125 5.945312 -13.09375 5.5 -13.0625 L -3.28125 -11.390625 C -3.53125 -11.328125 -3.75 -11.238281 -3.9375 -11.125 C -4.113281 -11.019531 -4.285156 -10.789062 -4.453125 -10.4375 L -5.234375 -8.796875 L 0.546875 -6.0625 C 1.097656 -6.800781 1.425781 -7.226562 1.53125 -7.34375 C 1.601562 -7.445312 1.703125 -7.519531 1.828125 -7.5625 C 1.953125 -7.601562 2.066406 -7.597656 2.171875 -7.546875 L 3.265625 -7.03125 L 2.40625 -5.1875 L 1.234375 -2.703125 Z M -7.046875 -9.609375 L -5.9375 -11.96875 L -5.9375 -11.953125 C -5.59375 -12.691406 -5.375 -13.367188 -5.28125 -13.984375 C -5.21875 -14.554688 -5.265625 -15.132812 -5.421875 -15.71875 C -5.578125 -16.257812 -5.820312 -16.71875 -6.15625 -17.09375 C -6.476562 -17.488281 -6.925781 -17.820312 -7.5 -18.09375 C -8.570312 -18.59375 -9.554688 -18.613281 -10.453125 -18.15625 C -11.328125 -17.71875 -12.101562 -16.78125 -12.78125 -15.34375 L -13.953125 -12.859375 Z M -7.046875 -9.609375 "/></g></g></g><g fill="#000000" fill-opacity="1"><g transform="translate(293.307395, 142.331238)"><g><path d="M 0.203125 -0.671875 L -0.890625 -1 C -1.117188 -1.070312 -1.226562 -1.234375 -1.21875 -1.484375 L -1.203125 -2.671875 L -16.625 -15.015625 L -15.828125 -17.671875 L 3.84375 -19.375 L 4.484375 -20.359375 C 4.617188 -20.585938 4.800781 -20.664062 5.03125 -20.59375 L 6.125 -20.265625 L 4.4375 -14.6875 L 3.34375 -15.015625 C 3.113281 -15.085938 3.003906 -15.253906 3.015625 -15.515625 L 3.046875 -16.734375 L -1.328125 -16.390625 L -3.859375 -8.015625 L -0.40625 -5.3125 L 0.25 -6.328125 C 0.375 -6.546875 0.550781 -6.617188 0.78125 -6.546875 L 1.875 -6.21875 Z M -5.515625 -9.328125 L -3.4375 -16.234375 L -11.78125 -15.609375 C -12.351562 -15.546875 -13.019531 -15.53125 -13.78125 -15.5625 C -13.007812 -15.09375 -12.445312 -14.734375 -12.09375 -14.484375 Z M -5.515625 -9.328125 "/></g></g></g><g fill="#000000" fill-opacity="1"><g transform="translate(300.284643, 118.416661)"><g><path d="M 0.15625 -0.953125 L -1.046875 -1.109375 C -1.328125 -1.148438 -1.476562 -1.3125 -1.5 -1.59375 L -1.609375 -3.25 L -17.59375 -5.4375 C -17.882812 -4.550781 -18.066406 -4.03125 -18.140625 -3.875 C -18.234375 -3.613281 -18.4375 -3.503906 -18.75 -3.546875 L -19.9375 -3.703125 L -19.46875 -7.109375 C -19.425781 -7.359375 -19.375 -7.535156 -19.3125 -7.640625 C -19.257812 -7.722656 -19.117188 -7.847656 -18.890625 -8.015625 L -2.15625 -17.546875 L -2.109375 -17.546875 C -2.378906 -17.535156 -2.851562 -17.578125 -3.53125 -17.671875 L -15.6875 -19.34375 C -15.769531 -19.03125 -15.851562 -18.738281 -15.9375 -18.46875 C -16.03125 -18.195312 -16.109375 -17.976562 -16.171875 -17.8125 C -16.234375 -17.65625 -16.265625 -17.566406 -16.265625 -17.546875 C -16.367188 -17.253906 -16.5625 -17.125 -16.84375 -17.15625 L -18.0625 -17.328125 L -17.75 -19.625 L -17.421875 -22 L -17.140625 -24.046875 L -15.921875 -23.875 C -15.628906 -23.84375 -15.476562 -23.675781 -15.46875 -23.375 L -15.359375 -21.71875 L 2.671875 -19.25 L 2.484375 -17.890625 C 2.429688 -17.515625 2.226562 -17.21875 1.875 -17 L -14.875 -7.4375 C -14.539062 -7.4375 -14.097656 -7.394531 -13.546875 -7.3125 L -1.28125 -5.640625 C -1.125 -6.191406 -0.929688 -6.800781 -0.703125 -7.46875 C -0.597656 -7.71875 -0.40625 -7.820312 -0.125 -7.78125 L 1.078125 -7.625 Z M 0.15625 -0.953125 "/></g></g></g><g fill="#000000" fill-opacity="1"><g transform="translate(303.318888, 93.691333)"><g><path d="M -10.125 -0.546875 C -13.164062 -0.523438 -15.671875 -1.445312 -17.640625 -3.3125 C -19.566406 -5.175781 -20.546875 -7.679688 -20.578125 -10.828125 L -20.609375 -10.765625 C -20.617188 -12.378906 -20.148438 -14.472656 -19.203125 -17.046875 L -17.625 -17.0625 L -14.453125 -17.09375 L -14.4375 -15.734375 C -14.4375 -15.378906 -14.609375 -15.164062 -14.953125 -15.09375 C -15.003906 -15.082031 -15.425781 -15.046875 -16.21875 -14.984375 C -16.4375 -14.972656 -16.644531 -14.953125 -16.84375 -14.921875 C -17.039062 -14.898438 -17.191406 -14.878906 -17.296875 -14.859375 C -17.398438 -14.847656 -17.46875 -14.84375 -17.5 -14.84375 C -17.96875 -13.28125 -18.195312 -11.859375 -18.1875 -10.578125 C -18.175781 -8.421875 -17.457031 -6.671875 -16.03125 -5.328125 C -14.539062 -3.972656 -12.582031 -3.304688 -10.15625 -3.328125 C -7.695312 -3.347656 -5.738281 -4.039062 -4.28125 -5.40625 C -2.90625 -6.6875 -2.222656 -8.363281 -2.234375 -10.4375 C -2.242188 -11.59375 -2.363281 -12.484375 -2.59375 -13.109375 C -2.96875 -14.097656 -3.46875 -14.921875 -4.09375 -15.578125 C -4.238281 -15.753906 -4.3125 -15.90625 -4.3125 -16.03125 C -4.3125 -16.226562 -4.253906 -16.382812 -4.140625 -16.5 L -2.96875 -17.59375 C -0.925781 -15.84375 0.109375 -13.410156 0.140625 -10.296875 C 0.160156 -7.378906 -0.785156 -5.035156 -2.703125 -3.265625 C -4.617188 -1.472656 -7.09375 -0.566406 -10.125 -0.546875 Z M -10.125 -0.546875 "/></g></g></g><g fill="#000000" fill-opacity="1"><g transform="translate(302.789332, 73.10651)"><g><path d="M -0.109375 -0.96875 L -1.328125 -0.84375 C -1.617188 -0.800781 -1.800781 -0.90625 -1.875 -1.15625 L -2.390625 -2.765625 L -18.4375 -1.015625 C -18.5 -0.078125 -18.546875 0.5 -18.578125 0.71875 C -18.617188 0.9375 -18.78125 1.0625 -19.0625 1.09375 L -20.234375 1.21875 L -20.96875 -5.546875 L -19.796875 -5.671875 C -19.492188 -5.703125 -19.300781 -5.578125 -19.21875 -5.296875 L -18.734375 -3.71875 L -2.6875 -5.46875 C -2.613281 -6.3125 -2.5625 -6.894531 -2.53125 -7.21875 C -2.488281 -7.445312 -2.332031 -7.578125 -2.0625 -7.609375 L -0.84375 -7.734375 Z M -0.109375 -0.96875 "/></g></g></g><g fill="#000000" fill-opacity="1"><g transform="translate(301.587026, 61.987851)"><g><path d="M -1.015625 -0.8125 L -6.015625 0.171875 L -6.296875 -1.171875 C -6.359375 -1.484375 -6.234375 -1.695312 -5.921875 -1.8125 C -5.773438 -1.882812 -5.332031 -2.019531 -4.59375 -2.21875 L -3.390625 -2.546875 C -3.148438 -4.097656 -3.113281 -5.285156 -3.28125 -6.109375 C -3.4375 -6.890625 -3.671875 -7.550781 -3.984375 -8.09375 C -4.253906 -8.582031 -4.582031 -8.960938 -4.96875 -9.234375 C -5.769531 -9.796875 -6.726562 -9.96875 -7.84375 -9.75 C -8.90625 -9.53125 -9.617188 -8.867188 -9.984375 -7.765625 C -10.160156 -7.210938 -10.28125 -6.671875 -10.34375 -6.140625 C -10.5625 -4.078125 -10.71875 -2.832031 -10.8125 -2.40625 C -10.925781 -1.832031 -11.160156 -1.257812 -11.515625 -0.6875 C -12.191406 0.476562 -13.332031 1.222656 -14.9375 1.546875 C -16.394531 1.835938 -17.757812 1.554688 -19.03125 0.703125 C -20.363281 -0.210938 -21.210938 -1.585938 -21.578125 -3.421875 C -21.953125 -5.316406 -21.945312 -7.242188 -21.5625 -9.203125 L -16.984375 -10.109375 L -16.71875 -8.765625 C -16.65625 -8.441406 -16.773438 -8.21875 -17.078125 -8.09375 C -17.085938 -8.09375 -17.179688 -8.070312 -17.359375 -8.03125 C -17.535156 -7.988281 -17.820312 -7.910156 -18.21875 -7.796875 C -18.613281 -7.679688 -19.046875 -7.554688 -19.515625 -7.421875 C -19.609375 -6.085938 -19.566406 -4.957031 -19.390625 -4.03125 C -19.148438 -2.832031 -18.671875 -1.972656 -17.953125 -1.453125 C -17.253906 -0.941406 -16.453125 -0.773438 -15.546875 -0.953125 C -14.554688 -1.148438 -13.890625 -1.796875 -13.546875 -2.890625 C -13.359375 -3.410156 -13.222656 -3.976562 -13.140625 -4.59375 C -12.921875 -6.300781 -12.738281 -7.550781 -12.59375 -8.34375 L -12.578125 -8.28125 C -12.078125 -10.457031 -10.78125 -11.753906 -8.6875 -12.171875 C -6.875 -12.535156 -5.273438 -12.253906 -3.890625 -11.328125 C -2.460938 -10.378906 -1.539062 -8.863281 -1.125 -6.78125 C -0.945312 -5.90625 -0.847656 -4.976562 -0.828125 -4 C -0.804688 -3.289062 -0.832031 -2.515625 -0.90625 -1.671875 Z M -1.015625 -0.8125 "/></g></g></g><g fill="#000000" fill-opacity="1"><g transform="translate(298.200283, 45.230825)"><g><path d="M -9.8125 2.546875 C -12.707031 3.492188 -15.375 3.375 -17.8125 2.1875 C -20.207031 1 -21.894531 -1.085938 -22.875 -4.078125 L -22.890625 -4 C -23.390625 -5.539062 -23.582031 -7.6875 -23.46875 -10.4375 L -21.96875 -10.9375 L -18.953125 -11.921875 L -18.53125 -10.625 C -18.414062 -10.289062 -18.507812 -10.035156 -18.8125 -9.859375 C -18.863281 -9.835938 -19.253906 -9.671875 -19.984375 -9.359375 C -20.191406 -9.285156 -20.382812 -9.207031 -20.5625 -9.125 C -20.75 -9.039062 -20.890625 -8.976562 -20.984375 -8.9375 C -21.078125 -8.894531 -21.140625 -8.867188 -21.171875 -8.859375 C -21.148438 -7.210938 -20.941406 -5.78125 -20.546875 -4.5625 C -19.878906 -2.507812 -18.65625 -1.0625 -16.875 -0.21875 C -15.050781 0.613281 -12.988281 0.65625 -10.6875 -0.09375 C -8.351562 -0.851562 -6.695312 -2.109375 -5.71875 -3.859375 C -4.789062 -5.492188 -4.648438 -7.296875 -5.296875 -9.265625 C -5.648438 -10.359375 -6.03125 -11.171875 -6.4375 -11.703125 C -7.101562 -12.535156 -7.828125 -13.171875 -8.609375 -13.609375 C -8.804688 -13.734375 -8.925781 -13.851562 -8.96875 -13.96875 C -9.03125 -14.15625 -9.019531 -14.320312 -8.9375 -14.46875 L -8.15625 -15.859375 C -5.675781 -14.816406 -3.957031 -12.8125 -3 -9.84375 C -2.09375 -7.070312 -2.28125 -4.554688 -3.5625 -2.296875 C -4.84375 -0.00390625 -6.925781 1.609375 -9.8125 2.546875 Z M -9.8125 2.546875 "/></g></g></g><g fill="#000000" fill-opacity="1"><g transform="translate(291.615617, 25.370052)"><g><path d="M -5.890625 1.390625 C -6.828125 2.390625 -7.972656 3.222656 -9.328125 3.890625 C -10.691406 4.566406 -12.050781 4.96875 -13.40625 5.09375 C -14.757812 5.226562 -16.039062 5.101562 -17.25 4.71875 C -18.46875 4.332031 -19.582031 3.703125 -20.59375 2.828125 C -21.601562 1.941406 -22.429688 0.84375 -23.078125 -0.46875 C -23.722656 -1.78125 -24.09375 -3.117188 -24.1875 -4.484375 C -24.28125 -5.835938 -24.117188 -7.09375 -23.703125 -8.25 C -23.253906 -9.445312 -22.570312 -10.546875 -21.65625 -11.546875 C -20.757812 -12.503906 -19.609375 -13.332031 -18.203125 -14.03125 L -18.15625 -14.015625 C -16.769531 -14.691406 -15.414062 -15.097656 -14.09375 -15.234375 C -12.738281 -15.367188 -11.457031 -15.238281 -10.25 -14.84375 C -9.050781 -14.46875 -7.957031 -13.84375 -6.96875 -12.96875 C -5.925781 -12.0625 -5.085938 -10.960938 -4.453125 -9.671875 C -3.816406 -8.378906 -3.457031 -7.039062 -3.375 -5.65625 C -3.269531 -4.300781 -3.429688 -3.050781 -3.859375 -1.90625 C -4.296875 -0.695312 -4.972656 0.398438 -5.890625 1.390625 Z M -10.546875 1.390625 C -9.421875 0.835938 -8.5 0.203125 -7.78125 -0.515625 C -7.0625 -1.242188 -6.523438 -2.054688 -6.171875 -2.953125 C -5.835938 -3.816406 -5.703125 -4.722656 -5.765625 -5.671875 C -5.828125 -6.671875 -6.09375 -7.644531 -6.5625 -8.59375 C -7.03125 -9.550781 -7.640625 -10.347656 -8.390625 -10.984375 C -9.097656 -11.617188 -9.898438 -12.070312 -10.796875 -12.34375 C -11.679688 -12.59375 -12.640625 -12.65625 -13.671875 -12.53125 C -14.703125 -12.40625 -15.78125 -12.066406 -16.90625 -11.515625 L -16.90625 -11.484375 C -18.03125 -10.921875 -18.953125 -10.269531 -19.671875 -9.53125 C -20.460938 -8.738281 -21.007812 -7.953125 -21.3125 -7.171875 C -21.65625 -6.296875 -21.789062 -5.378906 -21.71875 -4.421875 C -21.65625 -3.484375 -21.375 -2.507812 -20.875 -1.5 C -20.394531 -0.53125 -19.800781 0.265625 -19.09375 0.890625 C -18.382812 1.535156 -17.582031 1.976562 -16.6875 2.21875 C -15.789062 2.488281 -14.820312 2.554688 -13.78125 2.421875 C -12.75 2.296875 -11.671875 1.953125 -10.546875 1.390625 Z M -10.546875 1.390625 "/></g></g></g></g></g></svg>